<svg xmlns="http://www.w3.org/2000/svg" width="155.021" height="79.488" viewBox="0 0 155.021 79.488">
  <g id="logo_black" data-name="logo black" transform="translate(-31.979 -27)">
    <path id="Path_15" data-name="Path 15" d="M20.868,60.834Q23,59.125,23,54.89a20.465,20.465,0,0,0-1.727-7.617q-1.727-4.236-5.748-4.237a4.8,4.8,0,0,0-4.806,3.311,11.957,11.957,0,0,0-.677,4.308,14.7,14.7,0,0,0,2.1,7.8q2.1,3.454,5.446,3.452a5.032,5.032,0,0,0,3.276-1.068M9.566,85.288a23.984,23.984,0,0,0,7.706,1.14,19.773,19.773,0,0,0,9.61-2.048q3.7-2.047,3.7-5.037,0-2.385-2.995-3.168a36.579,36.579,0,0,0-7.027-.533q-1.32-.038-2.782-.089T15.1,75.428q-.783-.034-2.532-.285t-2.6-.427q-.428,0-2.08,2.243A7.251,7.251,0,0,0,6.2,81.16q0,2.989,3.364,4.128M5.793,58.805A10.976,10.976,0,0,1,4,52.647a11.78,11.78,0,0,1,3.31-7.9q3.31-3.738,9.362-3.738a15.841,15.841,0,0,1,5.73,1.228,16.463,16.463,0,0,0,6.017,1.228q.746,0,2.259-.053t2.19-.053h.427V46.24H27.132q.64,1.5,1,2.6a13.952,13.952,0,0,1,.6,3.915,10.417,10.417,0,0,1-3.363,7.457,12.171,12.171,0,0,1-9.059,3.4,28.225,28.225,0,0,1-3.2-.32q-1.033,0-2.74,1.743T8.659,67.882q0,1.139,2.494,1.672a17.127,17.127,0,0,0,3.636.357q9.163,0,12.442,1.033,5.384,1.674,5.384,7.19,0,5.623-6.283,8.97a26.747,26.747,0,0,1-12.69,3.346q-5.837,0-9.255-2.367T.969,83.117a4.182,4.182,0,0,1,.905-2.509,29.232,29.232,0,0,1,3.563-3.649l2.339-2.1.426-.428a10.889,10.889,0,0,1-2.437-1.245A3.175,3.175,0,0,1,4.35,70.659a4.9,4.9,0,0,1,1.229-2.9,47.09,47.09,0,0,1,5.25-5.144,9.317,9.317,0,0,1-5.036-3.808" transform="translate(31.01 16.039)" fill="#0a0a0a"/>
    <path id="Path_16" data-name="Path 16" d="M72.809,73.4q3.275-.284,4.343-1.156t1.067-3.72V52.469a13.784,13.784,0,0,0-.658-5.036,2.4,2.4,0,0,0-2.4-1.512,6.512,6.512,0,0,0-.945.089c-.391.059-.8.137-1.228.231V45.064c1.349-.472,9.5-3.487,10.751-4.057.166,0,.265.06.3.179a3.3,3.3,0,0,1,.054.748V47.77A27.223,27.223,0,0,1,88.5,42.823a6.81,6.81,0,0,1,4.409-1.78,4.123,4.123,0,0,1,2.964,1.086,3.851,3.851,0,0,1,.269,5.178,2.786,2.786,0,0,1-2.19,1,4.089,4.089,0,0,1-2.721-1.246,3.855,3.855,0,0,0-2.155-1.247q-1.245,0-3.06,2.012A6.162,6.162,0,0,0,84.2,51.972V68.024q0,3.06,1.425,4.254t4.734,1.12v1.175H72.809Z" transform="translate(11.781 16.039)" fill="#0a0a0a"/>
    <path id="Path_17" data-name="Path 17" d="M59.008,68.025q0,3.063,1.424,4.254T65.166,73.4v1.173H47.617V73.4q3.275-.287,4.343-1.158t1.067-3.72V52.47a13.767,13.767,0,0,0-.658-5.038,2.4,2.4,0,0,0-2.4-1.512,6.7,6.7,0,0,0-.944.088c-.391.059-.8.138-1.228.232V45.066c1.348-.475,9.5-3.489,10.751-4.058.166,0,.5,0,.461.925Z" transform="translate(18.524 16.038)" fill="#0a0a0a"/>
    <path id="Path_18" data-name="Path 18" d="M124.694,54.789a32.636,32.636,0,0,0-6.763,2.992q-5.125,3.167-5.125,7.189a5.468,5.468,0,0,0,2.135,4.77,5.191,5.191,0,0,0,3.1,1,8.49,8.49,0,0,0,4.5-1.317,3.863,3.863,0,0,0,2.154-3.346Zm-13.062,4.023q3.275-2.134,13.062-5.8V49.984a12.5,12.5,0,0,0-.71-5.055q-1.212-2.384-5.019-2.385a6.922,6.922,0,0,0-3.454.925,2.94,2.94,0,0,0-1.637,2.634,9.455,9.455,0,0,0,.178,1.442,10.25,10.25,0,0,1,.178,1.3,2.964,2.964,0,0,1-1.317,2.777,3.328,3.328,0,0,1-1.78.463,2.987,2.987,0,0,1-2.457-1.052,3.607,3.607,0,0,1-.854-2.33q0-2.493,3.079-5.216t9.024-2.722q6.9,0,9.362,4.484A15.524,15.524,0,0,1,130.6,52.4V66.679a9.5,9.5,0,0,0,.286,2.847,1.855,1.855,0,0,0,1.92,1.389,3.2,3.2,0,0,0,1.353-.249,13.871,13.871,0,0,0,1.85-1.211v1.851a11.631,11.631,0,0,1-2.455,2.278,7.158,7.158,0,0,1-4.058,1.353,3.963,3.963,0,0,1-3.506-1.568,7.019,7.019,0,0,1-1.192-3.738,33.457,33.457,0,0,1-4.628,3.49,12.13,12.13,0,0,1-6.159,1.922,7.4,7.4,0,0,1-5.3-2.154,7.253,7.253,0,0,1-2.242-5.465q0-5.16,5.161-8.614" transform="translate(2.771 16.103)" fill="#0a0a0a"/>
    <path id="Path_19" data-name="Path 19" d="M174.764,4.571q0-2.1-2.48-3.345A12.327,12.327,0,0,0,166.668-.02q-7.809,0-10.732,7.439a24.813,24.813,0,0,0-1.514,8.4h0v.036c0,.143-.008,6.937-.011,14.9h-6.167v2.654h6.166c0,10.806-.007,22.6-.007,22.6q0,3.95-1.194,5.178T148.244,62.6v1h19.009v-1q-4.591-.32-5.679-1.441t-1.085-5.144v-22.6h6.154V30.755h-6.154V8.487a10.9,10.9,0,0,1,.531-3.738,3.61,3.61,0,0,1,3.647-2.669,3.031,3.031,0,0,1,1.879.516,5.2,5.2,0,0,1,1.168,1.264l.6.926a10.414,10.414,0,0,0,1.77,2.189,2.781,2.781,0,0,0,3.825-.3,3.021,3.021,0,0,0,.852-2.1" transform="translate(-8.41 27.02)" fill="#0a0a0a"/>
    <path id="Path_20" data-name="Path 20" d="M202.958,23.532q0-2.1-2.476-3.345a12.348,12.348,0,0,0-5.616-1.245q-7.81,0-10.733,7.439A25.845,25.845,0,0,0,182.6,35.83h-6.053v2.654H182.6V61.122q0,3.952-1.192,5.179t-4.966,1.405v1h19.006v-1q-4.59-.32-5.676-1.441t-1.087-5.144V38.484h6.262V35.83h-6.262V27.449a10.894,10.894,0,0,1,.532-3.738,3.61,3.61,0,0,1,3.65-2.669,3.015,3.015,0,0,1,1.874.516,5.143,5.143,0,0,1,1.17,1.264l.6.926a10.411,10.411,0,0,0,1.772,2.189,2.78,2.78,0,0,0,3.824-.3,3.02,3.02,0,0,0,.849-2.1" transform="translate(-15.958 22.058)" fill="#0a0a0a"/>
    <path id="Path_21" data-name="Path 21" d="M55.96,29.958a3.823,3.823,0,1,0-3.824-3.824,3.823,3.823,0,0,0,3.824,3.824" transform="translate(17.314 21.043)" fill="#0a0a0a"/>
  </g>
</svg>
